<?xml version="1.0" encoding="UTF-8"?><svg xmlns="http://www.w3.org/2000/svg" viewBox="0 0 313.02 104.17"><defs><style>.d{fill:#fcc79b;}.e{fill:#d8e2dc;}</style></defs><g id="a"/><g id="b"><g id="c"><g><path class="e" d="M120.8,21.13c-.58-.4-1.45-.96-2.14-1.23-1.14-.45-7.16-.95-10.09-.65-2.93,.3-6.66,1.84-6.66,1.84l.34-.41c-.07,.03-.15,.07-.22,.1-.39,.15-.82,.24-1.23,.21-.21-.01-.25-.29-.07-.38,.01,0,.02-.01,.04-.02,.16-.09,.12-.32-.05-.37h-.01c-.2-.06-.2-.33,0-.39,.63-.21,1.2-.57,1.66-1.05,.11-.12,.06-.3-.1-.34-.36-.09-.72-.22-1.05-.38-.18-.08-.14-.35,.06-.38,.73-.12,1.46-.31,2.06-.72,.14-.1,.1-.3-.06-.36-.38-.13-.76-.28-1.13-.46-.18-.09-.14-.36,.07-.38,1.45-.16,2.88-.5,4.16-1.18,.35-.18,.7-.42,.91-.74,.09-.14,0-.32-.17-.32-.47,0-.94,0-1.39-.08-.44-.08-.87-.24-1.23-.49-.14-.1-.09-.31,.07-.35,1.03-.3,2.04-.66,3.03-1.09,.19-.08,.37-.17,.55-.27,.16-.1,.11-.34-.08-.37-.27-.05-.54-.14-.8-.25-.19-.08-.14-.37,.07-.38,.88-.08,1.75-.2,2.62-.35,.39-.07,.79-.16,1.16-.31,.19-.08,.15-.36-.06-.39-1.5-.18-5.1-.43-8.22,.75-3.36,1.27-6.38,7.1-7.34,9.11-.09,.19-.36,.14-.38-.07-.26-2.62-1.3-11.44-3.66-15.35-2.78-4.62-11.33-3.48-11.33-3.48l.13,.23c.08,.07,.17,.13,.25,.19,.99,.67,2.05,1.35,3.24,1.39h-1.05c-.17,.01-.26,.21-.16,.34,.51,.66,1.15,1.22,1.87,1.64,.18,.1,.11,.36-.09,.38-.25,.02-.51,.01-.76-.01-.17-.02-.28,.17-.19,.31,.65,1.06,1.69,1.84,2.81,2.41,.18,.09,.13,.34-.06,.38-.15,.03-.31,.05-.46,.05-.14,0-.22,.16-.17,.29,.44,.99,1.3,1.74,2.2,2.4,.16,.12,.08,.37-.12,.37-.21,0-.42-.02-.63-.04-.15-.01-.26,.13-.21,.27,.28,.79,.91,1.44,1.52,2.04-.1,.02-.27,0-.45-.06-.16-.05-.31,.11-.25,.27,.09,.21,.17,.37,.18,.5-.19-.13-.32-.32-.46-.43l.11,.38s-3.38-2.43-5.02-3.58c-1.64-1.14-5.12-2.14-7.6-2.14s-4.77,2.49-4.77,2.49c0,0,.07,.05,.18,.14,.92,0,1.84-.03,2.76-.12,.22-.02,.31,.27,.12,.38-.08,.05-.17,.09-.25,.14-.17,.09-.13,.35,.06,.38,.72,.1,1.46,.07,2.2,0,.23-.02,.31,.29,.11,.38-.23,.11-.46,.21-.69,.31-.16,.07-.16,.29-.01,.37,.24,.13,.51,.28,.59,.3,.4,.12,.8,.18,1.22,.22,.62,.06,1.24,.09,1.86,.1,.33,0,1.49-.05,.67,.4-.17,.1-1.13,.4-1.72,.52-.17,.03-.22,.25-.08,.36,.41,.31,.89,.53,1.38,.69,1.35,.45,2.78,.57,4.21,.62,.22,0,.27,.32,.06,.39-.43,.15-.87,.29-1.32,.4-.17,.04-.21,.27-.06,.37,1.26,.78,2.86,.89,4.36,.97-.09,.34-.54,.38-.87,.51-.05,.02-.1,.04-.12,.08-.08,.12,.08,.26,.22,.32,.46,.19,.94,.35,1.42,.45,.2,.04,.21,.32,.02,.39l-.28,.1c-.13,.05-.18,.21-.09,.32,.3,.37,.75,.61,1.22,.68l-.45-.06c.27,.16,.43,.25,.43,.25,0,0-4.82-.6-8.6-1.09-3.78-.5-7.85,.2-11.13,2.48-2.73,1.9-1.84,6.08-1.47,7.42,.05,.17,.27,.2,.37,.05l1.78-2.82c.1-.16,.35-.1,.37,.08l.24,2.14c.02,.17,.24,.24,.35,.11l2.56-2.89c.1-.12,.29-.08,.34,.07l.73,2.08c.05,.16,.26,.18,.36,.05l2.06-2.96c.1-.14,.32-.1,.36,.06l.48,1.79c.05,.18,.3,.2,.38,.04l1.06-2.18c.07-.14,.27-.15,.35-.02l1.43,2.25c.15,0,.19,0,.35,0l1.52-2.57c.09-.15,.31-.13,.37,.04l.64,1.87c.05,.15,.25,.18,.35,.06l1.85-2.19c.07-.09,.2-.1,.29-.03l1.48,1.25c.08,.07,.1,.19,.03,.28-.06,.07-.13,.17-.22,.29-1.37,.72-2.62,1.69-3.66,2.84,.39,.03,.78,.07,1.17,.11-.92,.31-1.82,.7-2.67,1.16-.63,.34-1.28,.79-1.5,1.47,.53-.06,1.07-.13,1.6-.19-1.16,.66-2.37,1.37-3.04,2.53-.54,.94-.65,2.07-.67,3.16,.27-.39,.59-.75,.95-1.08-.05,.23-.08,.47-.11,.7-.07,.31-.09,.63-.06,.94,0,1.07,.19,2.13,.58,3.12,.12-.12,.26-.22,.41-.31,.25,.43,.56,.83,.92,1.17,.02,.02,.05,.04,.07,.07-.4,.71-1.89,3.84-5.45,15.91-3.57,12.11-3.3,33.2-3.1,39.23l7.65-.6c-.3-2.07-2.18-16.55-.08-34.95,1.73-15.16,6.71-22.3,9.04-24.89,.16-.18,.45,.03,.32,.24-.8,1.33-1.98,3.48-3.01,6.08-1.74,4.38,.79,13.16,.79,13.16l.06-.07c.32-1.04,.63-2.07,.95-3.11,.04,.09,.08,.19,.12,.28,.05,.12,.19,.16,.3,.09,.51-.31,.85-.86,1.08-1.42,.25-.63,.39-1.31,.65-1.94,.09,.11,.15,.24,.19,.37,.04,.13,.22,.18,.32,.09,.62-.57,.8-1.54,.92-2.41l.27-2.01c.12,.16,.24,.31,.35,.47,.09,.12,.27,.1,.34-.02,.08-.14,.11-.33,.12-.5,.11-1.4,.16-2.81,.13-4.21,0-.17,.2-.27,.33-.16,.05,.04,.1,.08,.14,.13,.11,.11,.3,.07,.34-.08,.26-.94,.09-2,.45-2.92,.05-.14,.12-.27,.2-.39,.31-.52,.52-1.09,.59-1.68,.17-1.61,.29-2.94,.35-3.63,0-.1,0-.2,0-.3,0,0,.01,.02,.02,.03,.01-.16,.02-.24,.02-.24,0,0,.03,.12,.09,.33,0,.03,.02,.06,.04,.08,.33,.37,.62,.77,.86,1.2l.27-.24c-.12,1.71,.44,3.45,1.53,4.77,.09,.11,.25,.09,.33-.03,.12-.19,.24-.38,.36-.57,.1-.17,.35-.11,.37,.09,.11,1.1,.21,2.2,.32,3.3,.02,.21,.31,.25,.39,.06,.1-.23,.19-.46,.29-.69,.08-.19,.36-.15,.39,.05,.11,.85,.25,1.7,.51,2.52,.28,.9,.71,1.77,1.35,2.46,.12,.13,.34,.04,.35-.14,0-.43,.06-.87,.17-1.29,.05-.21,.36-.2,.4,.02,.25,1.32,.75,2.6,1.46,3.74,.1,.16,.33,.12,.37-.06,.07-.27,.18-.53,.34-.76,.1-.15,.33-.11,.37,.06,.18,.84,.51,1.65,.98,2.37,.17,.25,.55,.51,.72,.26,.14-.19-.02-.55,.19-.66,.12,.48,.27,.96,.45,1.42,.22,.04,.34,.03,.34,.03,1.01-6.13-2.3-12.24-4.19-15.12-.14-.2-.28-.39-.43-.59-.23-.3-.47-.6-.64-.94-.1-.13-.16-.2-.16-.2l.14,.16c-.09-.2-.16-.4-.17-.62,.54,.64,1.13,1.24,1.77,1.78,.13,.11,.32,.02,.33-.14,.01-.21,.03-.41,.04-.62,.01-.21,.29-.26,.38-.08l1.24,2.48c.21,.41,.42,.82,.68,1.19,.11,.15,.34,.08,.36-.1,.07-.57,.2-1.13,.39-1.67,.07-.19,.33-.18,.39,.01,.3,1.01,.5,2.05,.81,3.06,.32,1.04,.8,2.07,1.56,2.84,.13,.13,.34,.04,.35-.14,.02-.73,.11-1.46,.28-2.17,.05-.22,.38-.21,.4,.02,.11,1.01,.13,2.03,.28,3.03,.14,.99,.41,1.99,.93,2.83,0,.01,.01,.02,.02,.03l.26,.3c.12,.14,.35,.06,.36-.13,.02-1.03,.08-2.08,.41-3.03,.07-.21,.39-.16,.39,.07l.04,3.79c0,.16,0,.33,.01,.5,.27-.31,1.01-1.35,1.29-3.77,.35-2.98-1.09-7.9-3.03-9.89-1.94-1.99-9.74-7.55-9.74-7.55,.04,.02,.1,.05,.18,.07-.18-.08-.37-.16-.55-.24,.79,0,1.57-.12,2.32-.34,.12-.04,.18-.18,.12-.29,0-.01-.01-.03-.02-.04-.08-.15,.06-.34,.22-.29,1.19,.3,2.45,.37,3.67,.19,.16-.02,.22-.22,.12-.33-.18-.21-.37-.42-.55-.62-.13-.14,0-.37,.18-.33,1.99,.34,4.05,.24,5.99-.28,.2-.05,.2-.35,0-.4-.55-.13-1.07-.33-1.47-.68-.14-.12-.05-.36,.14-.36,.97,.03,1.94,.03,2.9,.02,.77-.01,1.56-.04,2.3-.25,.17-.05,.19-.27,.05-.37-.14-.1-.27-.22-.38-.35,1.07,.17,2.16,.26,3.24,.29,.2,0,.28-.25,.12-.37Z"/><path class="d" d="M76.22,100.3c27.6,0,53.57,1.27,76.22,3.5-19.57-5.19-46.49-8.4-76.22-8.4S19.57,98.61,0,103.8c22.65-2.23,48.62-3.5,76.22-3.5Z"/><g><path class="d" d="M16.71,50.25H.71v-10.67H44.27v10.67h-16v41.91h-11.57V50.25Z"/><path class="d" d="M43.68,51.9h11.42v8.11c2.33-5.56,6.08-9.16,12.84-8.86v11.94h-.6c-7.59,0-12.24,4.58-12.24,14.2v14.87h-11.42V51.9Z"/><path class="d" d="M90.24,51.9h11.42v5.78c2.78-3.76,6.61-6.53,12.54-6.53,9.39,0,18.33,7.36,18.33,20.8v.15c0,13.44-8.79,20.8-18.33,20.8-6.08,0-9.84-2.78-12.54-6.01v17.27h-11.42V51.9Zm30.87,20.2v-.15c0-6.68-4.51-11.12-9.84-11.12s-9.76,4.43-9.76,11.12v.15c0,6.68,4.43,11.12,9.76,11.12s9.84-4.36,9.84-11.12Z"/><path class="d" d="M139.52,39.58h22.38c6.01,0,10.74,1.73,13.75,4.66,2.18,2.25,3.38,5.03,3.38,8.41v.15c0,6.83-4.21,10.37-8.34,12.17,6.23,1.88,11.27,5.48,11.27,12.69v.15c0,9.01-7.59,14.34-19.08,14.34h-23.36V39.58Zm33.5,13.89c0-5.18-4.13-8.56-11.64-8.56h-16v18.1h15.55c7.14,0,12.09-3.23,12.09-9.39v-.15Zm-11.04,14.8h-16.6v18.55h17.65c7.96,0,12.92-3.53,12.92-9.39v-.15c0-5.71-4.81-9.01-13.97-9.01Z"/><path class="d" d="M186.61,72.93v-.15c0-10.97,8.56-20.28,20.28-20.28s20.2,9.16,20.2,20.13v.15c0,10.97-8.64,20.28-20.35,20.28s-20.13-9.16-20.13-20.13Zm34.55,0v-.15c0-8.34-6.23-15.17-14.42-15.17s-14.2,6.83-14.2,15.02v.15c0,8.34,6.16,15.1,14.35,15.1s14.27-6.76,14.27-14.95Z"/><path class="d" d="M231.38,72.93v-.15c0-10.97,8.56-20.28,20.28-20.28s20.2,9.16,20.2,20.13v.15c0,10.97-8.64,20.28-20.35,20.28s-20.13-9.16-20.13-20.13Zm34.55,0v-.15c0-8.34-6.23-15.17-14.42-15.17s-14.2,6.83-14.2,15.02v.15c0,8.34,6.16,15.1,14.35,15.1s14.27-6.76,14.27-14.95Z"/><path class="d" d="M278.55,37.33h5.78v37.86l20.96-21.86h7.21l-16.3,16.67,16.82,22.16h-6.91l-13.89-18.1-7.89,7.96v10.14h-5.78V37.33Z"/></g><g><polygon class="e" points="268.95 35.07 261.54 38.06 264.08 51.28 266.4 50.25 268.95 35.07"/><path class="e" d="M276.2,26.01c-2.41-.08-4.8,.45-6.96,1.53l-2.56,1.28-7.95-4.99-5.98-3.75-2.31,1.04,8.77,11.46-4.62,2.32-5.24-3.19-1.7,.76,3.29,4.26-.29,.15c-.8,.4-1.15,1.37-.78,2.19h0c.37,.82,1.32,1.21,2.15,.88l.3-.12,1,5.29,1.7-.76,1.1-6.04,4.8-1.91v.04l7.88-3.18h.01l2.54-1c2.24-.89,4.23-2.33,5.77-4.18,.68-.81,.12-2.05-.93-2.08Z"/></g><polygon class="e" points="244.89 36.83 211.28 47.27 244.04 34.43 244.89 36.83"/><polygon class="e" points="248.94 44.94 231.92 49.55 248.09 42.53 248.94 44.94"/></g></g></g></svg>